<svg width="2002" height="311" viewBox="0 0 2002 311" fill="none" xmlns="http://www.w3.org/2000/svg">
<path d="M2001.23 273.52C1953.67 285.815 1906.12 298.11 1858.57 284.98C1811.02 271.85 1763.46 233.294 1715.91 231.5C1668.36 229.706 1620.8 264.673 1573.25 284.98C1525.69 305.287 1478.14 310.935 1430.59 292.62C1383.04 274.305 1335.48 232.026 1287.93 235.32C1240.38 238.614 1192.82 287.48 1145.27 286.89C1097.72 286.3 1050.17 236.252 1002.61 229.59C955.06 222.928 907.506 259.65 859.953 273.52C812.403 287.39 764.849 278.407 717.296 267.79C669.742 257.173 622.189 244.922 574.635 246.78C527.082 248.638 479.532 264.606 431.978 273.52C384.425 282.434 336.871 284.295 289.318 286.89C241.764 289.485 194.211 292.816 146.661 292.62C99.1071 292.424 51.5536 288.702 4.00009 284.98V136C51.5536 136 99.1071 136 146.661 136C194.211 136 241.764 136 289.318 136C336.871 136 384.425 136 431.978 136C479.532 136 527.082 136 574.635 136C622.189 136 669.742 136 717.296 136C764.849 136 812.403 136 859.953 136C907.506 136 955.06 136 1002.61 136C1050.17 136 1097.72 136 1145.27 136C1192.82 136 1240.38 136 1287.93 136C1335.48 136 1383.04 136 1430.59 136C1478.14 136 1525.69 136 1573.25 136C1620.8 136 1668.36 136 1715.91 136C1763.46 136 1811.02 136 1858.57 136C1906.12 136 1953.67 136 2001.23 136V273.52Z" fill="#1FD9F2"/>
<path d="M4.00018 30.186C51.5537 17.891 99.1072 5.59599 146.661 18.726C194.211 31.856 241.764 70.412 289.318 72.206C336.871 74 384.425 39.033 431.978 18.726C479.532 -1.58101 527.082 -7.22901 574.635 11.086C622.189 29.401 669.742 71.68 717.296 68.386C764.849 65.092 812.403 16.226 859.953 16.816C907.506 17.406 955.06 67.454 1002.61 74.116C1050.17 80.778 1097.72 44.056 1145.27 30.186C1192.82 16.316 1240.38 25.299 1287.93 35.916C1335.48 46.533 1383.04 58.784 1430.59 56.926C1478.14 55.068 1525.69 39.1 1573.25 30.186C1620.8 21.272 1668.36 19.411 1715.91 16.816C1763.46 14.221 1811.02 10.89 1858.57 11.086C1906.12 11.282 1953.67 15.004 2001.23 18.726V167.706C1953.67 167.706 1906.12 167.706 1858.57 167.706C1811.02 167.706 1763.46 167.706 1715.91 167.706C1668.36 167.706 1620.8 167.706 1573.25 167.706C1525.69 167.706 1478.14 167.706 1430.59 167.706C1383.04 167.706 1335.48 167.706 1287.93 167.706C1240.38 167.706 1192.82 167.706 1145.27 167.706C1097.72 167.706 1050.17 167.706 1002.61 167.706C955.06 167.706 907.506 167.706 859.953 167.706C812.403 167.706 764.849 167.706 717.296 167.706C669.742 167.706 622.189 167.706 574.635 167.706C527.082 167.706 479.532 167.706 431.978 167.706C384.425 167.706 336.871 167.706 289.318 167.706C241.764 167.706 194.211 167.706 146.661 167.706C99.1072 167.706 51.5537 167.706 4.00018 167.706V30.186Z" fill="#1FD9F2"/>
</svg>
